<?xml version="1.0" encoding="iso-8859-1"?>
<!-- Generator: Adobe Illustrator 19.0.0, SVG Export Plug-In . SVG Version: 6.00 Build 0)  -->
<svg version="1.1" id="Capa_1" xmlns="http://www.w3.org/2000/svg" xmlns:xlink="http://www.w3.org/1999/xlink" x="0px" y="0px"
	 viewBox="0 0 512 512" style="enable-background:new 0 0 512 512;" xml:space="preserve">
<g>
	<g>
		<path d="M76.031,84.849c-2.793-2.793-6.656-4.394-10.61-4.394c-3.954,0-7.827,1.601-10.62,4.394
			c-2.793,2.802-4.394,6.666-4.394,10.62c0,3.954,1.601,7.827,4.394,10.62c2.792,2.793,6.666,4.394,10.62,4.394
			c3.954,0,7.817-1.6,10.61-4.394c2.803-2.793,4.404-6.666,4.404-10.62C80.435,91.515,78.833,87.652,76.031,84.849z"/>
	</g>
</g>
<g>
	<g>
		<path d="M477.686,33.231H34.315C15.393,33.231,0,48.624,0,67.545v287.507c0,18.92,15.393,34.314,34.315,34.314h175.713v59.376
			h-44.875c-8.292,0-15.014,6.722-15.014,15.014s6.722,15.014,15.014,15.014h181.692c8.292,0,15.014-6.722,15.014-15.014
			s-6.722-15.014-15.014-15.014h-46.876v-59.376h177.717c18.921,0,34.314-15.394,34.314-34.314V67.545
			C512,48.624,496.607,33.231,477.686,33.231z M269.942,448.742h-29.887v-59.376h29.887V448.742z M481.973,355.052
			c0,2.363-1.924,4.287-4.287,4.287H34.315c-2.364,0-4.288-1.924-4.288-4.287v-10.518h451.946V355.052z M481.973,314.507H30.027
			V67.545c0-2.363,1.924-4.287,4.288-4.287h443.371c2.363,0,4.287,1.924,4.287,4.287V314.507z"/>
	</g>
</g>
<g>
	<g>
		<path d="M118.069,84.849c-2.793-2.793-6.656-4.394-10.61-4.394c-3.954,0-7.827,1.601-10.62,4.394
			c-2.793,2.804-4.394,6.666-4.394,10.62c0,3.954,1.601,7.827,4.394,10.62c2.792,2.793,6.666,4.394,10.62,4.394
			c3.954,0,7.817-1.601,10.61-4.394c2.803-2.793,4.404-6.666,4.404-10.62C122.473,91.515,120.871,87.651,118.069,84.849z"/>
	</g>
</g>
<g>
	<g>
		<path d="M160.107,84.849c-2.793-2.793-6.656-4.394-10.61-4.394c-3.954,0-7.827,1.601-10.62,4.394
			c-2.792,2.804-4.394,6.666-4.394,10.62c0,3.954,1.601,7.827,4.394,10.62c2.793,2.793,6.666,4.394,10.62,4.394
			s7.817-1.601,10.61-4.394c2.803-2.793,4.404-6.666,4.404-10.62C164.511,91.515,162.909,87.651,160.107,84.849z"/>
	</g>
</g>
<g>
	<g>
		<path d="M145.151,132.911h-75.39c-10.674,0-19.357,8.684-19.357,19.357v118.705c0,10.674,8.684,19.358,19.357,19.358h75.39
			c10.674,0,19.357-8.684,19.357-19.358V152.268C164.508,141.595,155.825,132.911,145.151,132.911z M134.481,260.303H80.432v-97.364
			h54.049V260.303z"/>
	</g>
</g>
<g>
	<g>
		<path d="M283.275,132.911h-75.389c-10.674,0-19.357,8.684-19.357,19.357v50.814c0,10.673,8.684,19.357,19.357,19.357h75.389
			c10.674,0,19.358-8.684,19.358-19.357v-50.814C302.633,141.595,293.949,132.911,283.275,132.911z M272.606,192.411h-54.049
			v-29.472h54.049V192.411z"/>
	</g>
</g>
<g>
	<g>
		<path d="M445.138,260.303H203.543c-8.292,0-15.014,6.722-15.014,15.014s6.722,15.014,15.014,15.014h241.594
			c8.292,0,15.014-6.722,15.014-15.014S453.429,260.303,445.138,260.303z"/>
	</g>
</g>
<g>
	<g>
		<path d="M445.138,132.912h-97.24c-8.292,0-15.014,6.722-15.014,15.014s6.722,15.014,15.014,15.014h97.24
			c8.292,0,15.014-6.722,15.014-15.014S453.429,132.912,445.138,132.912z"/>
	</g>
</g>
<g>
	<g>
		<path d="M445.138,190.24h-97.24c-8.292,0-15.014,6.722-15.014,15.014s6.722,15.014,15.014,15.014h97.24
			c8.292,0,15.014-6.722,15.014-15.014S453.429,190.24,445.138,190.24z"/>
	</g>
</g>
<g>
</g>
<g>
</g>
<g>
</g>
<g>
</g>
<g>
</g>
<g>
</g>
<g>
</g>
<g>
</g>
<g>
</g>
<g>
</g>
<g>
</g>
<g>
</g>
<g>
</g>
<g>
</g>
<g>
</g>
</svg>
