<?xml version="1.0" encoding="UTF-8" standalone="no"?>
<svg
   xmlns:dc="http://purl.org/dc/elements/1.1/"
   xmlns:cc="http://creativecommons.org/ns#"
   xmlns:rdf="http://www.w3.org/1999/02/22-rdf-syntax-ns#"
   xmlns:svg="http://www.w3.org/2000/svg"
   xmlns="http://www.w3.org/2000/svg"
   viewBox="0 0 841.88977 595.27557"
   id="svg7"
   height="595.27557"
   width="841.88977"
   version="1.1">
  <metadata
     id="metadata13">
    <rdf:RDF>
      <cc:Work
         rdf:about="">
        <dc:format>image/svg+xml</dc:format>
        <dc:type
           rdf:resource="http://purl.org/dc/dcmitype/StillImage" />
      </cc:Work>
    </rdf:RDF>
  </metadata>
  <defs
     id="defs11" />
  <g
     id="Layer1000">
    <path
       id="path2"
       style="fill:#009ee0;fill-rule:evenodd"
       d="m 675.2299,250.5512 c -5.6392,0 -10.4094,4.3382 -10.4094,10.2209 0,5.9372 4.7702,10.2741 10.4094,10.2741 5.5856,0 10.3558,-4.3369 10.3558,-10.2741 0,-5.8827 -4.7702,-10.2209 -10.3558,-10.2209 z m 4.717,7.699 c 0,-2.332 -1.3826,-3.3608 -4.1737,-3.3608 h -4.5011 v 11.8199 h 1.7891 v -5.1243 h 2.0607 l 3.1172,5.1243 h 2.0067 l -3.3617,-5.2055 c 1.7342,-0.2172 3.0628,-1.1385 3.0628,-3.2536 z m -6.8857,1.817 v -3.6596 h 2.4403 c 1.2466,0 2.5756,0.2708 2.5756,1.7342 0,1.8162 -1.3558,1.9254 -2.8736,1.9254 z m 2.1687,9.2712 c -4.6899,0 -8.3487,-3.6329 -8.3487,-8.5663 0,-4.8539 3.6588,-8.5118 8.3487,-8.5118 4.6363,0 8.2951,3.6579 8.2951,8.5118 0,4.9334 -3.6588,8.5663 -8.2951,8.5663 z" />
    <path
       id="path4"
       style="fill:#009ee0;fill-rule:evenodd"
       d="m 402.1838,342.4308 c 0,5.537 -4.5315,10.0699 -10.0699,10.0699 v 0 c -5.5384,0 -10.0699,-4.5315 -10.0699,-10.0699 V 256.482 c 0,-5.538 4.5315,-10.0699 10.0699,-10.0699 v 0 c 5.5384,0 10.0699,4.5323 10.0699,10.0699 v 48.9645 l 31.1082,-24.1622 c 4.3738,-3.3971 10.7312,-2.6041 14.1308,1.7682 v 0 c 3.3997,4.3722 2.6045,10.7342 -1.7682,14.1307 l -16.0875,12.4954 16.0085,27.7276 c 2.7682,4.7947 1.1106,10.9864 -3.6858,13.7557 v 0 c -4.7964,2.7692 -10.9865,1.1107 -13.7557,-3.6858 l -14.6224,-25.3269 -11.3279,8.7986 z M 272.4137,250.6556 v 1.6663 89.3216 c 0,6.3574 5.202,11.56 11.56,11.56 v 0 c 6.358,0 11.56,-5.202 11.56,-11.56 V 240.7086 c 0,-28.8298 -45.4731,-36.5972 -58.1206,-7.8694 -12.6475,-28.7278 -58.1214,-20.959 -58.1214,7.8694 v 100.9349 c 0,6.357 5.202,11.56 11.56,11.56 v 0 c 6.358,0 11.56,-5.2026 11.56,-11.56 v -89.3216 -1.6663 c 0,-6.4484 5.2757,-11.7241 11.7241,-11.7241 v 0 c 6.3157,0 11.5061,5.0615 11.7169,11.3283 v 91.3837 c 0,6.358 5.202,11.56 11.56,11.56 v 0 c 6.358,0 11.56,-5.2026 11.56,-11.56 v -91.3732 c 0.2054,-6.2717 5.3975,-11.3388 11.7169,-11.3388 v 0 c 6.4484,0 11.7241,5.2757 11.7241,11.7241 z m 356.0937,49.2046 v 32.5682 h 38.8662 c 5.5368,0 10.0699,4.5315 10.0699,10.0699 v 0 c 0,5.5385 -4.5315,10.0699 -10.0699,10.0699 h -48.9361 c -5.5378,0 -10.0699,-4.5314 -10.0699,-10.0699 v -52.708 c 0,-5.5384 4.5327,-10.0699 10.0699,-10.0699 h 48.9361 c 5.5368,0 10.0699,4.5315 10.0699,10.0699 v 0 c 0,5.5384 -4.5315,10.0699 -10.0699,10.0699 z m -74.3116,0 v 6.2143 h 27.6215 c 5.5361,0 10.0699,4.5315 10.0699,10.0699 v 0 c 0,5.5384 -4.5312,10.0699 -10.0699,10.0699 h -27.6215 v 6.2141 h 38.8661 c 5.5369,0 10.0699,4.5315 10.0699,10.0699 v 0 c 0,5.5385 -4.5314,10.0699 -10.0699,10.0699 h -48.936 c -5.5379,0 -10.0699,-4.5314 -10.0699,-10.0699 v -52.708 c 0,-5.5384 4.5326,-10.0699 10.0699,-10.0699 h 48.936 c 5.5369,0 10.0699,4.5315 10.0699,10.0699 v 0 c 0,5.5384 -4.5314,10.0699 -10.0699,10.0699 z m -52.335,42.567 c 0,5.5364 -4.5314,10.0699 -10.0698,10.0699 v 0 c -5.5385,0 -10.0699,-4.5315 -10.0699,-10.0699 v -42.567 H 465.808 c -5.5379,0 -10.0699,-4.5315 -10.0699,-10.0699 v 0 c 0,-5.5384 4.5328,-10.0699 10.0699,-10.0699 h 51.966 c 5.5364,0 10.0698,4.5315 10.0698,10.0699 v 0 c 0,5.5384 -4.5314,10.0699 -10.0698,10.0699 h -15.9132 z m -175.6756,-42.567 v 6.2143 h 27.6216 c 5.5361,0 10.0699,4.5315 10.0699,10.0699 v 0 c 0,5.5384 -4.5312,10.0699 -10.0699,10.0699 h -27.6216 v 6.2141 h 38.8662 c 5.5368,0 10.0699,4.5315 10.0699,10.0699 v 0 c 0,5.5385 -4.5315,10.0699 -10.0699,10.0699 h -48.9361 c -5.5378,0 -10.0698,-4.5314 -10.0698,-10.0699 v -52.708 c 0,-5.5384 4.5326,-10.0699 10.0698,-10.0699 h 48.9361 c 5.5368,0 10.0699,4.5315 10.0699,10.0699 v 0 c 0,5.5384 -4.5315,10.0699 -10.0699,10.0699 z" />
  </g>
</svg>
