<?xml version="1.0" encoding="iso-8859-1"?>
<!-- Generator: Adobe Illustrator 18.0.0, SVG Export Plug-In . SVG Version: 6.00 Build 0)  -->
<!DOCTYPE svg PUBLIC "-//W3C//DTD SVG 1.1//EN" "http://www.w3.org/Graphics/SVG/1.1/DTD/svg11.dtd">
<svg version="1.1" id="Capa_1" xmlns="http://www.w3.org/2000/svg" xmlns:xlink="http://www.w3.org/1999/xlink" x="0px" y="0px"
	 viewBox="0 0 313.829 313.829" style="enable-background:new 0 0 313.829 313.829;" xml:space="preserve">
<g>
	<path d="M38.5,192.096h182.395v-35.219c0-11.046,8.955-20,20-20h41.646c2.564,0,5.008,0.501,7.262,1.38
		c-5.939-13.616-19.525-23.161-35.303-23.161h-216c-21.229,0-38.5,17.271-38.5,38.5S17.271,192.096,38.5,192.096z M46.5,143.596h35
		c5.514,0,10,4.486,10,10c0,5.514-4.486,10-10,10h-35c-5.514,0-10-4.486-10-10C36.5,148.082,40.986,143.596,46.5,143.596z"/>
	<path d="M38.5,102.096h216c21.229,0,38.5-17.271,38.5-38.5s-17.271-38.5-38.5-38.5h-216c-21.229,0-38.5,17.271-38.5,38.5
		S17.271,102.096,38.5,102.096z M237.5,50.846c7.029,0,12.75,5.72,12.75,12.75c0,7.03-5.721,12.75-12.75,12.75
		c-7.031,0-12.75-5.72-12.75-12.75C224.75,56.566,230.469,50.846,237.5,50.846z M46.5,53.596h35c5.514,0,10,4.486,10,10
		c0,5.514-4.486,10-10,10h-35c-5.514,0-10-4.486-10-10C36.5,58.082,40.986,53.596,46.5,53.596z"/>
	<path d="M196.469,215.632c2.52-5.218,7.129-8.996,12.537-10.535H38.5c-21.229,0-38.5,17.271-38.5,38.5s17.271,38.5,38.5,38.5
		h196.283l-35.973-45.333C194.041,230.752,193.131,222.541,196.469,215.632z M81.5,253.596h-35c-5.514,0-10-4.486-10-10
		c0-5.514,4.486-10,10-10h35c5.514,0,10,4.486,10,10C91.5,249.111,87.014,253.596,81.5,253.596z"/>
	<path d="M313.344,222.213c-0.813-1.683-2.518-2.752-4.385-2.752H287.41v-62.583c0-2.689-2.18-4.87-4.869-4.87h-41.646
		c-2.69,0-4.871,2.181-4.871,4.87v62.583h-21.547c-1.869,0-3.572,1.069-4.385,2.752c-0.814,1.683-0.592,3.682,0.57,5.145
		l47.24,59.531c0.924,1.164,2.328,1.843,3.814,1.843c1.486,0,2.891-0.679,3.815-1.843l47.242-59.531
		C313.936,225.894,314.156,223.895,313.344,222.213z"/>
</g>
<g>
</g>
<g>
</g>
<g>
</g>
<g>
</g>
<g>
</g>
<g>
</g>
<g>
</g>
<g>
</g>
<g>
</g>
<g>
</g>
<g>
</g>
<g>
</g>
<g>
</g>
<g>
</g>
<g>
</g>
</svg>
