<?xml version="1.0" encoding="UTF-8" standalone="no"?>
<svg
   xmlns:dc="http://purl.org/dc/elements/1.1/"
   xmlns:cc="http://creativecommons.org/ns#"
   xmlns:rdf="http://www.w3.org/1999/02/22-rdf-syntax-ns#"
   xmlns:svg="http://www.w3.org/2000/svg"
   xmlns="http://www.w3.org/2000/svg"
   viewBox="0 0 2489.96 522.59998"
   height="522.59998"
   width="2489.96"
   xml:space="preserve"
   id="svg2"
   version="1.1"><metadata
     id="metadata8"><rdf:RDF><cc:Work
         rdf:about=""><dc:format>image/svg+xml</dc:format><dc:type
           rdf:resource="http://purl.org/dc/dcmitype/StillImage" /></cc:Work></rdf:RDF></metadata><defs
     id="defs6" /><g
     transform="matrix(1.3333333,0,0,-1.3333333,0,522.6)"
     id="g10"><g
       transform="scale(0.1)"
       id="g12"><path
         id="path14"
         style="fill:#2f62b7;fill-opacity:1;fill-rule:nonzero;stroke:none"
         d="M 10257.6,848.27 V 3086.3 h 1584.9 c 423.8,0 1012,-450.82 1012,-1127.81 0,-661.52 -592.7,-1110.22 -1012,-1110.22 z M 9234.18,3918.34 V 0.0117188 H 11642.8 C 13187.5,0.0117188 13847,1078.01 13847,1959.7 c 0,880.33 -659.5,1958.64 -2204.2,1958.64 H 9234.18" /><path
         id="path16"
         style="fill:#2f62b7;fill-opacity:1;fill-rule:nonzero;stroke:none"
         d="M 6184.01,3086.3 V 0.0117188 H 7252.42 V 3086.3 h 1771.47 v 833.24 H 4413.41 V 3086.3 h 1770.6" /><path
         id="path18"
         style="fill:#2f62b7;fill-opacity:1;fill-rule:nonzero;stroke:none"
         d="m 14029.1,0.0117188 h 1070.5 V 3919.54 H 14029.1 V 0.0117188" /><g
         transform="scale(1.14569)"
         id="g20"><path
           id="path22"
           style="fill:#2f62b7;fill-opacity:1;fill-rule:nonzero;stroke:none"
           d="m 13205.2,1786.14 1758,1634.99 h 1238.1 L 14357.9,1786.14 16300,0.0102286 H 15006.7 L 13205.2,1786.14" /></g><path
         id="path24"
         style="fill:#2f62b7;fill-opacity:1;fill-rule:nonzero;stroke:none"
         d="m 3091.24,2262.95 -828.45,828.14 -829.04,-828.14 h 1657.49" /><path
         id="path26"
         style="fill:#2f62b7;fill-opacity:1;fill-rule:nonzero;stroke:none"
         d="m 1433.75,3919.54 829.04,-828.45 828.45,828.45 H 1433.75" /><path
         id="path28"
         style="fill:#2f62b7;fill-opacity:1;fill-rule:nonzero;stroke:none"
         d="M 2262.79,829.059 3393.89,1131.4 3091.24,2262.95 2262.79,829.059" /><path
         id="path30"
         style="fill:#2f62b7;fill-opacity:1;fill-rule:nonzero;stroke:none"
         d="M 4525.59,1434.96 3091.24,3919.54 V 2262.95 L 4525.59,1434.96 M 0,1434.96 1433.75,3919.54 V 2262.95 L 0,1434.96 M 2262.79,829.059 828.148,0.0117188 H 3697.13 L 2262.79,829.059" /><path
         id="path32"
         style="fill:#2f62b6;fill-opacity:1;fill-rule:nonzero;stroke:none"
         d="M 4525.59,1434.96 3394.19,1131.4 3697.13,0.0117188 4525.59,1434.96" /><path
         id="path34"
         style="fill:#2f62b7;fill-opacity:1;fill-rule:nonzero;stroke:none"
         d="M 828.148,0.0117188 1131.7,1131.4 0,1434.96 Z M 1433.75,2262.95 1131.7,1131.4 2262.79,829.059 1433.75,2262.95" /></g></g></svg>