<?xml version="1.0" encoding="UTF-8" standalone="no"?>
<svg
   xmlns:dc="http://purl.org/dc/elements/1.1/"
   xmlns:cc="http://creativecommons.org/ns#"
   xmlns:rdf="http://www.w3.org/1999/02/22-rdf-syntax-ns#"
   xmlns:svg="http://www.w3.org/2000/svg"
   xmlns="http://www.w3.org/2000/svg"
   viewBox="0 0 256.98666 256.98666"
   height="256.98666"
   width="256.98666"
   xml:space="preserve"
   id="svg2"
   version="1.1"><metadata
     id="metadata8"><rdf:RDF><cc:Work
         rdf:about=""><dc:format>image/svg+xml</dc:format><dc:type
           rdf:resource="http://purl.org/dc/dcmitype/StillImage" /></cc:Work></rdf:RDF></metadata><defs
     id="defs6" /><g
     transform="matrix(1.3333333,0,0,-1.3333333,0,256.98667)"
     id="g10"><g
       transform="scale(0.1)"
       id="g12"><path
         id="path14"
         style="fill:#ffffff;fill-opacity:1;fill-rule:evenodd;stroke:none"
         d="M 0,1927.44 H 1927.44 V 0 H 0 v 1927.44" /><path
         id="path16"
         style="fill:#231f20;fill-opacity:1;fill-rule:evenodd;stroke:none"
         d="m 1491.83,849.195 v 375.065 h -98.75 V 849.195 h 98.75 v 0" /><path
         id="path18"
         style="fill:#231f20;fill-opacity:1;fill-rule:evenodd;stroke:none"
         d="m 714.375,1144.64 0.047,-295.445 H 614.375 V 1144.59 H 445.352 v 79.67 h 438.836 v -79.67 H 714.422 l -0.047,0.05" /><path
         id="path20"
         style="fill:#231f20;fill-opacity:1;fill-rule:evenodd;stroke:none"
         d="m 1690.15,1224.77 h 130.84 l -195.13,-182.54 206.6,-193.195 -131.53,-0.113 -206.92,193.518 196.14,182.33 v 0" /><path
         id="path22"
         style="fill:#231f20;fill-opacity:1;fill-rule:evenodd;stroke:none"
         d="M 912.406,1224.65 V 847.629 L 1163,847.68 v 0 c 152.58,0 200.51,92.062 200.51,190.41 0,98.36 -48.86,186.59 -204.91,186.59 v 0 l -246.194,-0.03 z m 242.004,-298.568 -142.07,-0.039 v 218.627 l 142.07,0.1 v 0 c 60.39,0 109.35,-48.96 109.35,-109.34 0,-60.395 -48.96,-109.348 -109.35,-109.348 v 0 0" /><path
         id="path24"
         style="fill:#231f20;fill-opacity:1;fill-rule:evenodd;stroke:none"
         d="m 240.406,926.891 0.727,-0.211 106.051,30.281 -24.946,108.519 -81.832,-138.589 v 0" /><path
         id="path26"
         style="fill:#231f20;fill-opacity:1;fill-rule:evenodd;stroke:none"
         d="m 160.363,1065.48 h 161.535 l -81.218,76.22 -80.317,-76.22 v 0" /><path
         id="path28"
         style="fill:#231f20;fill-opacity:1;fill-rule:evenodd;stroke:none"
         d="M 239.711,927.086 160.023,1065.48 135.078,956.961 239.711,927.086 v 0" /><path
         id="path30"
         style="fill:#231f20;fill-opacity:1;fill-rule:evenodd;stroke:none"
         d="M 372.004,848.516 241.133,925.785 110.254,848.516 h 261.75 v 0" /><path
         id="path32"
         style="fill:#231f20;fill-opacity:1;fill-rule:evenodd;stroke:none"
         d="M 322.238,1219.13 H 160.711 L 27.9258,987.449 110.063,848.516 h 0.085 l 24.93,108.445 -107.0702,30.566 132.0152,77.953 h 0.34 v 151.59 l 80.317,-75.37 81.218,77.08 v -153.3 h 0.34 l 132.016,-77.953 -107.07,-30.566 24.929,-108.445 h 0.086 l 82.137,138.933 -132.098,231.681 v 0" /><path
         id="path34"
         style="fill:#231f20;fill-opacity:1;fill-rule:evenodd;stroke:none"
         d="m 609.453,795.617 h 55.617 v -18.293 h -17.316 v -73.179 h -21.469 v 73.179 h -16.832 v 18.293 0" /><path
         id="path36"
         style="fill:#231f20;fill-opacity:1;fill-rule:evenodd;stroke:none"
         d="m 733.133,704.145 v 91.472 h 23.297 v 0 c 7.804,0 17.195,-0.242 24.148,-4.265 8.297,-4.883 9.637,-13.786 9.637,-22.567 v 0 -40.613 0 c -0.121,-9.149 -2.93,-15.856 -9.149,-19.762 -5.609,-3.656 -12.441,-4.265 -19.027,-4.265 v 0 h -28.906 z m 21.465,16.464 c 14.394,-0.976 14.515,4.883 14.148,17.075 v 0 29.882 0 c -0.121,10.735 -3.656,11.344 -14.148,11.586 v 0 -58.543 0" /><path
         id="path38"
         style="fill:#231f20;fill-opacity:1;fill-rule:evenodd;stroke:none"
         d="m 860.461,704.145 v 91.472 h 21.465 v -36.59 h 0.246 l 15.855,36.59 h 21.953 l -19.515,-40.371 20.734,-51.101 h -22.683 l -11.832,31.832 -4.758,-9.27 v -22.562 h -21.465 v 0" /><path
         id="path40"
         style="fill:#231f20;fill-opacity:1;fill-rule:evenodd;stroke:none"
         d="m 1056.95,734.758 v -6.465 c 0,-5.242 1.7,-9.879 8.53,-9.879 5,0 7.2,4.512 7.2,9.149 0,7.683 -6.34,10.609 -11.95,14.023 -6.59,3.781 -12.2,7.32 -16.23,11.953 -3.9,4.637 -6.21,10.246 -6.21,18.297 0,17.195 10.36,25.977 26.95,25.977 18.66,0 28.17,-12.442 27.2,-29.637 v 0 h -19.76 v 0 c -0.25,5.363 0,12.683 -7.07,13.172 -4.4,0.367 -6.96,-2.075 -7.45,-6.098 -0.61,-5.492 2.2,-8.293 6.47,-11.219 8.05,-5.125 15,-8.297 20,-12.933 5,-4.629 7.93,-10.731 7.93,-21.828 0,-17.563 -9.76,-27.321 -27.56,-27.321 -19.64,0 -27.93,10.977 -27.93,23.051 v 0 9.758 h 19.88 v 0" /><path
         id="path42"
         style="fill:#231f20;fill-opacity:1;fill-rule:evenodd;stroke:none"
         d="m 1185.38,765.738 h 0.25 l 10.97,29.879 h 21.47 l -22.08,-53.054 v -38.418 h -21.46 v 38.418 l -21.59,53.054 h 21.71 l 10.73,-29.879 v 0" /><path
         id="path44"
         style="fill:#231f20;fill-opacity:1;fill-rule:evenodd;stroke:none"
         d="m 1296.73,734.758 v -6.465 c 0,-5.242 1.71,-9.879 8.54,-9.879 5,0 7.19,4.512 7.19,9.149 0,7.683 -6.34,10.609 -11.95,14.023 -6.58,3.781 -12.19,7.32 -16.22,11.953 -3.9,4.637 -6.22,10.246 -6.22,18.297 0,17.195 10.37,25.977 26.96,25.977 18.66,0 28.17,-12.442 27.2,-29.637 v 0 h -19.77 v 0 c -0.24,5.363 0,12.683 -7.07,13.172 -4.39,0.367 -6.95,-2.075 -7.44,-6.098 -0.61,-5.492 2.2,-8.293 6.47,-11.219 8.04,-5.125 15,-8.297 20,-12.933 5,-4.629 7.93,-10.731 7.93,-21.828 0,-17.563 -9.76,-27.321 -27.56,-27.321 -19.65,0 -27.94,10.977 -27.94,23.051 v 0 9.758 h 19.88 v 0" /><path
         id="path46"
         style="fill:#231f20;fill-opacity:1;fill-rule:evenodd;stroke:none"
         d="m 1394.07,795.617 h 55.62 v -18.293 h -17.32 v -73.179 h -21.47 v 73.179 h -16.83 v 18.293 0" /><path
         id="path48"
         style="fill:#231f20;fill-opacity:1;fill-rule:evenodd;stroke:none"
         d="m 1513.48,704.145 v 91.472 h 49.15 v -18.293 h -27.68 v -16.832 h 26.83 v -18.293 h -26.83 v -19.758 h 29.14 v -18.296 h -50.61 v 0" /><path
         id="path50"
         style="fill:#231f20;fill-opacity:1;fill-rule:evenodd;stroke:none"
         d="m 1630.33,704.145 v 91.472 h 30.24 l 11.11,-54.031 h 0.24 l 11.46,54.031 h 30.01 v -91.472 h -20.5 l 2.2,71.714 h -0.24 l -15.12,-71.714 h -15.98 l -14.76,71.714 h -0.24 l 1.95,-71.714 h -20.37 v 0" /><path
         id="path52"
         style="fill:#231f20;fill-opacity:1;fill-rule:evenodd;stroke:none"
         d="m 1796.55,734.758 v -6.465 c 0,-5.242 1.71,-9.879 8.54,-9.879 5,0 7.2,4.512 7.2,9.149 0,7.683 -6.34,10.609 -11.95,14.023 -6.59,3.781 -12.2,7.32 -16.23,11.953 -3.9,4.637 -6.22,10.246 -6.22,18.297 0,17.195 10.37,25.977 26.96,25.977 18.66,0 28.17,-12.442 27.2,-29.637 v 0 h -19.76 v 0 c -0.25,5.363 0,12.683 -7.08,13.172 -4.39,0.367 -6.95,-2.075 -7.44,-6.098 -0.61,-5.492 2.2,-8.293 6.47,-11.219 8.05,-5.125 15,-8.297 20,-12.933 5,-4.629 7.93,-10.731 7.93,-21.828 0,-17.563 -9.76,-27.321 -27.56,-27.321 -19.64,0 -27.93,10.977 -27.93,23.051 v 0 9.758 h 19.87 v 0" /><path
         id="path54"
         style="fill:#231f20;fill-opacity:1;fill-rule:evenodd;stroke:none"
         d="m 1845.85,873.355 c 0,14.997 12.17,26.055 26.54,26.055 14.24,0 26.4,-11.058 26.4,-26.055 0,-15.136 -12.16,-26.191 -26.4,-26.191 -14.37,0 -26.54,11.055 -26.54,26.191 v 0 z m 26.54,-21.839 c 11.82,0 21.15,9.261 21.15,21.839 0,12.372 -9.33,21.704 -21.15,21.704 -11.96,0 -21.28,-9.332 -21.28,-21.704 0,-12.578 9.32,-21.839 21.28,-21.839 v 0 z m -5.53,6.703 h -4.56 v 30.133 h 11.47 v 0 c 7.12,0 10.65,-2.625 10.65,-8.571 0,-5.39 -3.39,-7.738 -7.81,-8.293 v 0 l 8.57,-13.269 h -5.11 l -7.95,13.062 h -5.26 v -13.062 z m 5.46,16.933 c 3.87,0 7.33,0.278 7.33,4.907 0,3.73 -3.39,4.421 -6.56,4.421 v 0 h -6.23 v -9.328 h 5.46 v 0" /></g></g></svg>